<?xml version="1.0" encoding="UTF-8" standalone="no"?>
<!-- Created with Inkscape (http://www.inkscape.org/) -->

<svg
   width="85mm"
   height="55mm"
   viewBox="0 0 85 55"
   version="1.1"
   id="svg1"
   sodipodi:docname="2025businesscard-gd.svg"
   inkscape:version="1.4 (86a8ad7, 2024-10-11)"
   inkscape:export-filename="2025businesscard-gd.png"
   inkscape:export-xdpi="300"
   inkscape:export-ydpi="300"
   xmlns:inkscape="http://www.inkscape.org/namespaces/inkscape"
   xmlns:sodipodi="http://sodipodi.sourceforge.net/DTD/sodipodi-0.dtd"
   xmlns="http://www.w3.org/2000/svg"
   xmlns:svg="http://www.w3.org/2000/svg">
  <sodipodi:namedview
     id="namedview1"
     pagecolor="#ffffff"
     bordercolor="#000000"
     borderopacity="0.25"
     inkscape:showpageshadow="2"
     inkscape:pageopacity="0.0"
     inkscape:pagecheckerboard="false"
     inkscape:deskcolor="#d1d1d1"
     inkscape:document-units="mm"
     labelstyle="default"
     inkscape:clip-to-page="false"
     inkscape:zoom="2.8284271"
     inkscape:cx="137.70905"
     inkscape:cy="105.18213"
     inkscape:window-width="2194"
     inkscape:window-height="1211"
     inkscape:window-x="1912"
     inkscape:window-y="-8"
     inkscape:window-maximized="1"
     inkscape:current-layer="g350"
     inkscape:export-bgcolor="#ffffffff" />
  <defs
     id="defs1" />
  <g
     inkscape:label="Layer 1"
     inkscape:groupmode="layer"
     id="layer1">
    <g
       id="g337"
       transform="matrix(1.1573434,0.01071318,0.22019047,1.0022609,-10.039368,-0.53125094)">
      <path
         style="fill:#4cac49;fill-opacity:1;stroke-width:0.264583"
         id="path4"
         d="m 19.442741,34.710581 c 0.871723,-0.119509 1.749026,-0.198551 2.62697,-0.254905 0.101587,-0.0071 0.447477,0.01794 0.548624,-0.124108 0.08227,-0.11553 -0.04305,-0.325583 -0.07767,-0.410538 0,0 -0.06707,-0.0436 -0.06707,-0.0436 v 0 c -0.498963,-0.122068 -0.993963,-0.328231 -1.515027,-0.212807 -0.902773,0.119129 -1.811766,0.205762 -2.723585,0.182555 z" />
      <path
         style="fill:#4cac49;fill-opacity:1;stroke-width:0.264583"
         id="path13"
         d="m 36.549134,34.627321 c 0.756917,0.0053 1.434901,-0.05927 2.191771,-0.08649 0.08474,-0.419001 0.09461,-0.476152 -1.332242,-0.972055 -0.810517,-0.05578 -1.625463,-0.05031 -2.431992,-0.161031 z"
         sodipodi:nodetypes="ccccc" />
      <path
         style="fill:#4cac49;fill-opacity:1;stroke-width:0.264583"
         id="path21"
         d="m 68.902463,38.895374 c 0.797856,0.200208 1.313488,-0.09095 -1.47432,-1.335311 -0.109108,-0.0487 -0.436123,-0.116793 -0.180316,0.561567 -0.01725,0.218 -0.08668,0.631003 -0.118314,0.847384 -0.311883,1.706801 -0.799039,3.377443 -1.426019,4.994042 -0.132906,0.427332 -0.408318,0.800719 -0.551897,1.222492 0.214437,0.207663 1.46966,0.911704 0.909479,0.479165 l -0.06877,-0.04087 v 0 c -0.63813,-0.306964 0.558771,0.461352 0.85789,0.492969 0.130189,-0.455991 0.09354,-0.953188 0.21658,-1.411364 0.31564,-1.710113 0.689012,-3.418813 1.354461,-5.03206 0.09698,-0.313887 0.446147,-0.932114 0.572265,-1.148298 -1.626949,-1.378596 -2.07794,-1.097325 -1.663251,-0.270008 0.913695,0.377572 1.127953,0.528813 1.572212,0.640292 z"
         sodipodi:nodetypes="ssccccccscccscs" />
      <path
         style="fill:#4cac49;fill-opacity:1;stroke-width:0.264583"
         id="path2"
         d="m 11.73133,35.900992 c 0.729353,-0.967846 1.707356,-1.739958 2.784246,-2.291035 0.259938,-0.133017 0.536202,-0.231376 0.804302,-0.347065 0.594063,-0.153552 1.251797,0.313033 1.613697,1.115421 0.118914,0.39565 0.179851,0.806455 0.269776,1.209685 0.160844,1.530493 0.138142,0.865029 0.118822,2.305061 -0.0041,0.30503 -0.0038,0.61023 -0.01639,0.915024 -1.65e-4,0.004 -0.07387,1.076212 -0.09518,1.191168 -0.01357,0.07321 -0.05692,0.137604 -0.08537,0.206406 0.523354,0.224685 1.988571,1.215785 1.773651,0.655373 -0.75355,-1.964911 -0.86368,-2.271802 -1.135675,-3.354382 -0.07304,-0.176649 -0.106951,-0.375168 -0.219132,-0.529942 -0.107519,-0.148341 -0.257115,-0.271473 -0.421041,-0.353285 -0.666034,-0.332396 -1.327224,-0.711311 -2.05201,-0.880938 -0.233723,-0.0547 -0.465546,0.130715 -0.678252,0.241956 -0.667752,0.349229 -0.835449,0.620996 -1.356955,1.168348 -0.582061,0.697576 -1.545881,1.883714 -1.135689,2.888077 0.07973,0.195234 0.203115,0.393899 0.383463,0.503204 0.64178,0.388969 1.356773,0.641781 2.035159,0.96267 0.320962,-0.03338 0.646372,-0.03729 0.962884,-0.100147 0.365802,-0.07264 0.72329,-0.185148 1.076506,-0.304843 0.750198,-0.254219 1.347884,-0.268461 1.812423,-0.932338 0.825261,-1.179388 -1.229829,-0.225196 -1.69037,-0.09504 -0.370269,0.104644 -0.728574,0.255378 -1.102574,0.3487 -1.148427,0.286551 -1.083398,0.217566 -2.208705,0.197045 0.885714,0.879829 -0.02187,0.121528 -0.09915,-0.546825 -0.04205,-0.882049 0.566572,-1.59667 1.075825,-2.235649 1.580878,-1.327027 2.007478,-1.394569 2.491027,-0.300742 0.17229,0.504082 0.295072,0.991627 0.374335,1.518322 0.03193,0.212143 0.05673,0.426234 0.06065,0.640729 0.0024,0.132963 -0.144644,0.312594 -0.04169,0.396769 1.925295,1.383301 1.417006,-0.157223 1.245338,-1.548499 -0.05054,-0.391324 -0.03917,-0.912693 -0.08937,-1.30406 -0.0529,-0.412406 -0.06019,-0.991836 -0.105999,-1.405089 -0.01662,-0.158451 -0.116631,-1.534024 -0.36976,-1.922262 -0.363086,-0.556886 -0.989688,-0.897806 -1.509761,-1.298793 -0.139874,-0.107844 -0.308623,-0.193911 -0.483865,-0.215942 -0.414987,-0.05217 -0.770274,0.222347 -1.100985,0.402587 -2.670726,1.635448 1.517344,-0.934633 -1.492652,0.933101 -2.153983,1.336566 0.363709,-0.241128 -1.658711,0.983908 -0.350972,0.212593 -0.497927,0.319882 -0.799075,0.529908 z"
         sodipodi:nodetypes="cscsccsscscsssccsscssssccscssccsscssscsscc" />
      <path
         style="fill:#4cac49;fill-opacity:1;stroke-width:0.264583"
         id="path5"
         d="m 19.452862,32.219345 c 0.203687,2.332849 0.154106,4.678589 0.274909,7.01572 0.08761,0.703609 0.07761,1.531299 0.667271,2.028484 0.472805,0.398592 1.081043,0.583403 1.661815,0.759976 0.371655,-0.131703 0.771559,-0.401596 0.912113,-0.792681 0.108692,-0.230201 0.166875,-0.464765 0.105626,-0.714467 -0.04461,-0.133673 0.02911,-0.343694 -0.105224,-0.419471 -0.63518,0.13957 -1.231654,0.421066 -1.785571,0.761658 -0.200177,0.09207 -0.772199,-0.0395 -0.377264,0.29443 0.229513,0.227629 0.625893,0.464678 0.87657,0.513108 -0.406362,-0.299617 -0.621135,-0.759913 -0.750274,-1.235823 -0.420403,-1.432269 -0.463001,-2.939639 -0.525135,-4.420817 0.0058,-1.042061 0.05768,-2.08495 0.124443,-3.124581 0.0073,-0.397355 0.118978,-0.7842 0.172281,-1.165626 -0.367343,-0.50102 -0.966757,-0.764014 -1.465995,-1.103001 0.230125,0.712963 0.203608,1.196733 0.214435,1.603091 z"
         sodipodi:nodetypes="cccccccccccccccc" />
      <path
         style="fill:#4cac49;fill-opacity:1;stroke-width:0.273324"
         id="path6"
         d="m 23.366644,28.27749 c 0.227223,0.97923 0.254629,2.320015 0.273096,3.499339 0.02197,1.830012 -0.100073,3.657572 -0.188833,5.485001 -0.01677,0.345343 -0.09159,1.892048 -0.07819,2.341491 0.0076,0.253586 0.04868,0.504327 0.07303,0.75649 0.591359,0.859674 0.232466,0.487195 1.088654,1.104155 l 0.07339,0.03302 v 0 c 0.325456,-0.0611 0.207728,0.03683 0.2474,-0.39819 -0.05569,-0.262708 -0.122783,-0.522817 -0.167073,-0.788125 -0.230423,-1.380289 -0.269643,-2.791677 -0.264744,-4.193441 0.0022,-0.632722 0.01159,-1.265794 0.04011,-1.898127 0.02886,-0.638762 0.08808,-1.275941 0.132124,-1.913914 0.04703,-0.409918 0.231191,-2.133481 0.336975,-2.697973 0.04347,-0.231958 -0.365714,-1.902434 -1.565941,-1.329728 z"
         sodipodi:nodetypes="scsscccscscccss" />
      <path
         style="fill:#4cac49;fill-opacity:1;stroke-width:0.264583"
         id="path7"
         d="m 26.618233,34.14019 c 2.005206,-1.512487 2.160084,-0.996925 2.228782,-0.67296 0.147529,0.613124 0.153495,1.259676 0.189693,1.883399 0.03663,1.302708 -0.120121,2.593962 -0.391795,3.86474 -0.04751,0.279041 1.196198,0.758666 1.547892,0.805785 0.156853,0.02101 -0.06902,-0.30907 -0.09463,-0.465238 -0.07996,-0.48764 -0.08845,-0.708395 -0.129813,-1.202653 -0.06718,-0.52582 0.09434,-1.275215 -0.239278,-1.738553 -0.06364,-0.08838 -0.144439,-0.170313 -0.241089,-0.220512 -0.648327,-0.336743 -1.32167,-0.622953 -1.982507,-0.934432 -0.149971,0.05517 -0.307194,0.09364 -0.449916,0.165521 -0.875973,0.441151 -1.549409,1.280589 -2.087661,2.075431 -0.05343,0.118796 -0.137937,0.228063 -0.160282,0.356392 -0.01868,0.107254 -0.04511,0.258373 0.04182,0.323921 0.953044,0.718627 1.369777,1.352817 2.348348,1.269035 1.186274,-0.101563 4.288309,-1.722478 -0.180829,-1.280709 -1.194518,0.241446 1.236234,-3.299466 1.593606,-0.694607 0.148255,0.472846 -0.05613,1.093391 -0.01417,1.556377 1.207055,1.150001 1.669756,1.757117 1.685732,0.834358 -0.05851,-1.372012 -0.123219,-2.743919 -0.06722,-4.117832 0.0093,-0.659929 0.04089,-1.195012 -0.03547,-1.846458 -0.02524,-0.215373 0.02524,-0.481819 -0.1247,-0.638482 -0.461,-0.48169 -1.053108,-0.821269 -1.615343,-1.179653 -0.10016,-0.06384 -0.230306,-0.07908 -0.348895,-0.07241 -0.123126,0.0069 -0.23509,0.07459 -0.352637,0.111892 -0.81821,0.306448 -1.636699,0.621617 -2.412868,1.025171 z"
         sodipodi:nodetypes="csccsscsscccssscccccscscccc" />
      <path
         style="fill:#4cac49;fill-opacity:1;stroke-width:0.29883"
         id="path8"
         d="m 32.631835,32.430963 c -0.10572,0.06089 -0.2104,0.12468 -0.315601,0.187021 -0.509844,0.354432 -1.102336,0.786924 -1.469821,1.37741 -0.303905,0.383692 -0.08201,0.616057 0.07498,0.909122 0.692726,0.634714 1.423361,0.979115 1.87886,1.77173 0.159444,0.277448 0.648465,1.428248 -1.420785,2.50445 -0.03127,0.06072 -0.09726,0.109653 -0.09382,0.182174 0.01469,0.309122 0.802068,0.955864 1.139292,1.142033 0.118251,0.06525 0.245812,0.109666 0.374193,0.123519 0.08831,0.0096 0.174921,-0.03657 0.262382,-0.05486 0.550534,-0.390987 1.212331,-0.923368 1.481939,-1.681795 0.06917,-0.194584 0.09061,-0.41138 0.135911,-0.617072 -0.03626,-0.213579 -0.03041,-0.446407 -0.108765,-0.640738 -0.385352,-0.955695 -1.668829,-2.194029 -2.160642,-2.399938 -0.05504,-0.02305 -0.692392,-0.372063 0.0072,-0.995698 0.497814,-0.443757 1.22629,-0.526111 1.617711,-0.535686 1.334298,0.475216 -0.699406,-1.118123 -0.985268,-1.274511 -0.169873,-0.119621 -0.224449,-0.138818 -0.417776,0.0028 z"
         sodipodi:nodetypes="ccscscccccsccsssscc" />
      <path
         style="fill:#4cac49;fill-opacity:1;stroke-width:0.264583"
         id="path12"
         d="m 36.901289,30.693168 c 0.03252,0.05387 -0.168089,1.664575 -0.18666,1.88933 -0.100983,1.222338 -0.137785,2.043501 -0.244166,3.265426 -0.08489,0.936176 -0.177416,1.88326 -0.08386,2.823401 0.03356,0.33723 0.10019,0.747257 0.2775,1.05066 0.06764,0.115748 2.554698,1.90154 2.664278,1.073574 0.135763,-1.025801 -0.178147,-0.574803 -0.301517,-0.560735 -0.284398,0.03243 -0.851966,0.05256 -1.045131,-0.150719 -0.630612,-0.66363 -0.754754,-0.461959 -0.69941,-3.813579 0.03567,-0.408998 0.05751,-0.819438 0.10701,-1.226994 0.15915,-1.310405 0.425088,-2.697271 1.051883,-3.873051 z"
         sodipodi:nodetypes="cccssssscscc" />
      <path
         style="fill:#4cac49;fill-opacity:1;stroke-width:0.264583"
         id="path16"
         d="m 42.044694,33.153545 c -0.788366,-0.04796 -1.312109,0.434634 -1.810325,0.974614 -0.149815,0.198747 -0.590547,0.780344 -0.529698,1.055039 0.127888,0.676029 0.737548,0.668598 1.216411,0.909166 0.718606,0.22049 1.966754,0.687753 1.546083,0.51007 -0.07841,-0.03312 0.300994,0.14012 0.340528,0.2155 0.181301,0.345689 -0.01229,0.686242 -0.142718,1.013159 -0.309277,0.562594 -0.787408,0.983303 -1.410467,1.164421 -0.137407,0.03994 -0.280499,0.05677 -0.420746,0.08516 -0.49488,0.104048 -0.997392,0.03395 -1.495788,0.03863 -0.357716,-0.05309 0.50709,0.401894 0.690703,0.556088 l 0.06281,0.04955 v 0 c 0.275415,0.210622 0.520734,0.550198 0.871701,0.592312 0.499102,0.06268 1.003822,-0.05153 1.497775,-0.106997 0.302014,-0.07056 0.616834,-0.127754 0.899972,-0.262713 0.483518,-0.230471 0.804027,-0.685618 1.058119,-1.137497 0.129479,-0.327342 0.274439,-0.6711 0.182682,-1.034507 -0.223887,-0.886715 -1.63503,-1.441905 -2.191747,-1.57977 -0.797526,-0.394299 -1.919713,-0.179434 -0.988609,-1.419297 0.656048,-0.543854 1.31647,-0.754803 1.993349,-0.550401 z"
         sodipodi:nodetypes="ccscsscsccccsccscscccc" />
      <path
         style="fill:#4cac49;fill-opacity:1;stroke-width:0.280772"
         id="path17"
         d="m 46.020295,38.280553 c 0.77119,0.169409 1.604193,0.17348 2.407569,0.23877 0.357559,0.05545 0.638189,-0.24289 0.66459,-0.580257 0.107543,-0.657116 0.285366,-1.337773 0.129574,-2.001724 -0.0628,-0.455498 -0.513659,-0.623822 -0.830761,-0.879525 -0.373323,-0.256283 -0.732675,-0.553016 -1.148286,-0.733981 -0.555134,0.100938 -0.928319,0.587696 -1.245485,1.015592 -0.392456,0.60229 -0.653766,1.282841 -0.860376,1.968512 -0.201565,0.859167 -0.08221,1.764512 0.149002,2.605627 0.14389,0.499401 0.365128,0.988168 0.744607,1.353864 0.231095,0.251981 0.576221,0.457215 0.846431,0.666934 0.543971,0.360915 1.106618,0.72987 1.786875,0.704953 0.585241,2.25e-4 1.368652,-1.152081 1.061847,-1.011855 -0.448625,0.345081 -1.280232,0.309251 -2.087099,-0.0788 -0.444027,-0.100539 -1.217871,-1.069467 -1.460652,-1.961062 -0.09456,-0.755465 0.102224,-2.208965 0.439226,-2.892582 0.210407,-0.522854 1.334414,-1.312709 1.26372,-0.630129 -0.03361,0.369371 -0.170718,1.515074 -0.62046,1.517559 -0.773604,0.0128 -1.68027,-0.211205 -2.449439,-0.273574 l 0.564505,0.83008 z"
         sodipodi:nodetypes="scccccccccccccccccccs" />
      <path
         style="fill:#4cac49;fill-opacity:1;stroke-width:0.264583"
         id="path18"
         d="m 51.613637,37.680371 c 0.49716,-0.260508 1.643134,-0.529948 1.76897,0.172001 0.308682,1.317849 -0.02407,3.702989 -0.989682,5.678268 -0.300567,0.728633 -0.03354,0.410125 1.438693,0.998238 0.05094,0.02035 -0.04508,-0.103113 -0.0461,-0.157954 -0.0048,-0.257201 0.0865,-0.721936 0.124661,-0.952714 0.105841,-0.53168 0.259787,-1.081232 0.313127,-1.598722 0.07586,-0.736005 -0.19973,-1.419688 -0.39618,-1.689134 -0.610534,-0.837395 -1.034503,-0.779369 -1.901542,-0.571637 -0.330039,0.07907 -0.497171,0.198528 -0.793578,0.361741 -0.484738,0.334926 -1.163339,0.871937 -1.238944,1.509602 -0.01132,0.09545 0.01204,0.191867 0.01807,0.2878 0.05293,0.09418 0.08915,0.199943 0.158802,0.282527 0.91016,0.867721 2.070724,1.409091 3.407736,1.307419 0.274934,-0.297883 0.206205,-0.119425 0.186274,-0.542626 l -0.06558,-0.04582 v 0 c -0.926655,-0.250909 -1.038646,-0.177889 -1.927966,-0.334371 -1.210538,0.01 1.270997,-3.173069 1.251553,-0.923196 -0.04309,0.551524 -0.05678,0.769024 -0.224539,1.298376 -0.105391,0.354361 -0.324481,0.782458 -0.478005,1.059534 1.112899,0.793123 1.406314,1.316803 1.694291,0.551493 0.183748,-0.799007 0.851064,-4.695544 0.761717,-5.902783 -0.01937,-0.261781 -0.08096,-0.807244 -0.354504,-0.996315 -0.522222,-0.360958 -1.118652,-0.717267 -1.673097,-1.026454 -0.753425,0.02997 -1.479678,0.323541 -2.223247,0.43814 z"
         sodipodi:nodetypes="cscsccssscscscccscscccssccc" />
      <path
         style="fill:#4cac49;fill-opacity:1;stroke-width:0.264583"
         id="path19"
         d="m 57.724825,36.413217 c -0.0608,0.03992 -0.126096,0.07372 -0.182407,0.119751 -0.374565,0.306226 -0.752524,0.64017 -1.094744,0.980054 -0.399719,0.323561 -0.678272,0.742175 -0.999166,1.152323 -0.02286,0.05575 -0.03851,0.148164 0.01244,0.180361 0.515165,0.325591 1.060013,0.606423 1.618477,0.8504 0.09768,0.04267 0.213183,-0.0056 0.319757,-0.0037 0.134004,0.0024 0.267817,0.01117 0.401728,0.01675 0.150518,0.02564 0.303881,0.03814 0.451561,0.07693 0.16106,0.04231 0.602988,0.267518 0.471353,0.165524 -0.257265,-0.199343 -0.539697,-0.399071 -0.858332,-0.465373 -0.165352,-0.0344 0.250269,0.228883 0.355743,0.360794 0.330972,0.413927 0.314187,0.494728 0.490942,0.986713 0.02212,0.17952 0.0656,0.357682 0.06634,0.538559 0.0028,0.674735 -0.329673,1.348433 -0.835012,1.789002 -0.119607,0.104277 -0.259535,0.182649 -0.389305,0.273976 -0.394512,0.244726 -0.836713,0.344506 -1.287801,0.419539 -0.107781,0.01794 -0.438224,0.03733 -0.473647,0.112345 -0.02289,0.04846 0.0402,0.09937 0.06029,0.149055 0.400733,0.31137 0.541684,0.338474 0.324175,0.28343 l 0.06325,0.04899 v 0 c 0.287877,0.106508 0.05132,0.01214 0.638781,0.419225 0.134887,0.05412 0.264052,0.125574 0.404662,0.16234 0.217519,0.05687 0.426042,0.01931 0.640275,-0.02294 0.4787,-0.09442 0.942126,-0.251053 1.382141,-0.461942 0.363099,-0.280082 0.48287,-0.325413 0.742141,-0.715735 0.326091,-0.490913 0.430652,-1.07421 0.369308,-1.657037 -0.02162,-0.205388 -0.08742,-0.403691 -0.131133,-0.605536 -0.180472,-0.476798 -0.209164,-0.717279 -0.531848,-1.120006 -0.129164,-0.161208 -0.395846,-0.512937 -0.537954,-0.667515 -1.05169,-1.143982 -1.70838,-0.596787 -2.085872,-1.150245 -0.335413,-0.491765 0.883872,-1.084523 2.104344,-1.151083 z"
         sodipodi:nodetypes="ccsscsscssssccscsscccscsscsscssscc" />
      <path
         style="fill:#4cac49;fill-opacity:1;stroke-width:0.264583"
         id="path20"
         d="m 62.337252,43.797855 c -0.03756,0.009 -0.07511,0.01818 -0.112694,0.02717 -0.05569,0.01333 -0.112413,0.02289 -0.167129,0.0398 -0.05642,0.01744 -0.10709,0.05487 -0.165581,0.06302 -0.06665,0.0093 -0.260671,-0.04394 -0.201523,-0.01185 1.379818,0.748416 1.199716,0.683654 0.680924,-0.05663 -0.100613,-0.251307 -0.228214,-0.493424 -0.301837,-0.753917 -0.279223,-0.987954 -0.251955,-2.235973 0.08468,-3.209457 0.06501,-0.187994 0.168458,-0.360407 0.252685,-0.540612 0.120703,-0.127826 0.222234,-0.276969 0.362106,-0.383474 0.197086,-0.150074 0.640691,-0.343487 0.905328,-0.27782 0.192206,0.0477 0.70531,0.255815 0.512418,0.300656 -0.748437,0.173993 -1.124011,-0.98049 -0.394703,0.459753 0.285742,0.962174 0.301535,1.972107 -0.122192,2.898773 -0.198208,0.433467 -0.329986,0.539768 -0.629137,0.886991 -0.249166,0.209505 -0.386157,0.333648 -0.643924,0.519073 -0.08306,0.05975 -0.181436,0.09948 -0.255583,0.169977 -0.04844,0.04606 -0.12615,0.108674 -0.103706,0.17164 0.04347,0.121952 0.17222,0.193741 0.265827,0.283184 0.01717,0.0164 -0.02307,-0.04149 -0.03459,-0.06224 0,0 -0.07406,-0.03026 -0.07406,-0.03026 v 0 c 0.320942,0.25401 0.469392,0.399147 0.928642,0.548719 0.352097,0.114673 0.882169,-0.122806 1.157584,-0.324953 0.128159,-0.09407 0.231728,-0.2177 0.347591,-0.326549 0.10812,-0.146211 0.233294,-0.281231 0.324356,-0.438632 0.487198,-0.842131 0.595222,-1.916734 0.40858,-2.859968 -0.05656,-0.285856 -0.168013,-0.558051 -0.252021,-0.837078 -0.113583,-0.250272 -0.14196,-0.561031 -0.340749,-0.750819 -0.504534,-0.481698 -1.119124,-0.835504 -1.709666,-1.20678 -0.157406,-0.09896 -0.336738,-0.181772 -0.522097,-0.196335 -0.283083,-0.02225 -0.698921,0.218575 -0.883245,0.405218 -0.129747,0.131379 -0.210773,0.303239 -0.316159,0.454858 -0.06384,0.19866 -0.142227,0.393219 -0.191526,0.595974 -0.120576,0.495885 -0.172191,1.032677 -0.195938,1.539928 -0.03824,0.816801 -0.0048,1.634006 0.21684,2.425994 0.06924,0.168 0.06835,0.387408 0.207724,0.503994 0.248214,0.207632 1.186474,1.24928 1.883701,0.999138 0.06751,-0.02421 0.137515,-0.05912 0.181226,-0.115983 0.09591,-0.124767 0.03799,-0.244247 0.0089,-0.371721 z" />
      <path
         style="fill:#4cac49;fill-opacity:1;stroke-width:0.264583"
         id="path22"
         d="m 67.345572,42.488947 c 0.04358,-0.04573 0.09252,-0.08689 0.130747,-0.137186 0.07927,-0.104288 0.139499,-0.222364 0.220676,-0.325173 0.416636,-0.527661 0.929949,-0.976728 1.512191,-1.314654 0.721743,-0.395741 1.375453,-0.753521 1.576857,0.196889 0.04474,0.260111 -0.02198,0.587774 -0.03541,0.856938 -0.278474,1.579488 -1.006679,2.761761 -2.007172,3.979832 -0.170966,0.213751 -0.374364,0.39208 -0.584142,0.564951 -0.069,0.05686 -0.151296,0.08822 -0.132934,0.168452 1.07067,0.621179 1.32221,0.874462 0.940916,0.511366 l -0.06771,-0.0426 v 0 c -0.471175,-0.215374 -0.168097,-0.08734 0.779735,0.605197 0.03236,-0.0013 0.06618,0.006 0.09709,-0.0037 0.248497,-0.07781 0.502436,-0.64666 0.623451,-0.832733 0.568341,-1.060022 1.154152,-2.24916 1.50173,-3.396753 0.03349,-0.110565 0.292212,-1.630135 -0.05527,-2.636514 -0.303003,-0.877584 -0.918688,-1.424043 -1.823252,-1.214176 -0.349378,0.08106 -0.767466,0.221252 -1.038172,0.344583 -0.994347,0.568489 -1.464988,0.818236 -2.36187,1.530468 z"
         sodipodi:nodetypes="cssssccscccscccsssccc" />
    </g>
    <g
       id="g331">
      <path
         style="fill:#4cac49;fill-opacity:1;stroke-width:0.330986"
         id="path23"
         d="m 57.970327,12.777628 c -0.512612,0.47539 -1.142206,0.764216 -1.790137,0.595423 -0.120017,-0.03127 -0.239262,-0.112822 -0.358892,-0.169227 0.373079,0.230776 0.740484,0.571029 1.119238,0.692328 0.09577,0.03067 -0.157293,-0.247812 -0.209021,-0.400825 -0.05757,-0.170238 -0.09524,-0.359854 -0.110126,-0.543124 -0.03446,-0.424533 0.03336,-0.866942 0.156933,-1.182522 0.06561,-0.167563 0.166026,-0.282429 0.249036,-0.423643 0.117171,-0.05281 0.225878,-0.150678 0.351502,-0.158453 0.131517,-0.0081 0.532318,0.225409 0.404443,0.111691 -0.285169,-0.253582 -0.622701,-0.691974 -0.889449,-0.542986 -0.186613,0.104226 0.371745,0.462582 0.533974,0.741533 0.469884,0.80797 0.657611,1.437171 1.011682,2.390089 0.441171,1.316688 0.709002,2.710714 0.880497,4.119762 0.06235,0.512192 0.157406,1.458891 0.10572,1.980727 -0.02134,0.21559 -0.09764,0.387943 -0.146467,0.581916 -0.0934,0.09351 -0.169193,0.245705 -0.280196,0.280526 -0.119895,0.03773 -0.50544,-0.176414 -0.383143,-0.07244 0.388762,0.330514 0.796177,0.714488 1.200848,0.767634 0.188746,0.02478 -0.340083,-0.411417 -0.480528,-0.673032 -0.369004,-0.687361 -0.360249,-0.958652 -0.506897,-1.761763 0.01458,-0.265614 -0.01683,-0.565016 0.04373,-0.796843 0.311508,-1.192289 3.055158,0.978699 3.682729,1.796862 0.03161,0.04122 0.442612,0.669087 0.540745,0.715486 0.670205,0.316893 1.343992,0.547869 2.015985,0.821802 -0.09664,-0.387157 -0.179184,-0.781722 -0.289926,-1.161473 C 64.62178,19.798412 64.375995,19.138328 64.179006,18.447407 63.968008,17.707351 63.791423,16.949041 63.59997,16.198738 63.141176,14.400739 62.710633,12.601845 62.300589,10.783786 62.122836,9.993614 61.968582,9.1956484 61.800145,8.4024712 61.775546,8.2866442 61.772535,8.1518629 61.723047,8.0561439 61.541349,7.7048462 61.10479,7.4597577 60.914615,7.3188506 60.812856,7.251149 60.711096,7.1834413 60.609336,7.1157359 l -0.0763,-0.041473 v 0 l -0.263684,-0.101348 c -0.14681,-0.064694 -0.293838,-0.1688714 -0.440429,-0.1940929 -0.05974,-0.010281 -0.15094,-0.00694 -0.159028,0.090962 -0.01035,0.1252627 0.08001,0.2473068 0.120912,0.3702933 0.285036,0.8568609 0.575368,1.7099509 0.84531,2.5778042 0.567769,1.8481365 1.112788,3.6954925 1.605813,5.5878935 0.193221,0.741653 0.406027,1.476733 0.562864,2.232971 0.238083,1.147984 0.25577,1.595115 0.336252,2.585857 0.624428,0.480125 -0.233758,-0.723492 -1.2511,-1.682328 -0.70743,-0.528545 -1.40984,-1.091546 -2.122279,-1.585636 -0.759272,-0.526564 -2.065675,-1.160555 -2.407805,0.334621 -0.06084,0.265872 -0.03099,0.594681 -0.0465,0.892022 0.127138,0.925278 0.08646,1.046985 0.434121,1.890906 0.633819,1.538605 1.402534,1.606288 2.546853,2.24598 0.16573,0.09265 0.342622,0.06239 0.490593,-0.02213 0.131978,-0.07539 0.209672,-0.291873 0.314511,-0.437808 0.0283,-0.248863 0.09106,-0.482426 0.08493,-0.746591 -0.01068,-0.458699 -0.267889,-1.802632 -0.345721,-2.18741 -0.298628,-1.476117 -0.692358,-2.90608 -1.113109,-4.325132 -0.345152,-0.968577 -0.529838,-1.589045 -0.967821,-2.445404 -0.692405,-1.353808 -1.131345,-1.403799 -2.298865,-2.087922 -0.142137,-0.083289 -0.292818,-0.069567 -0.425981,-0.02048 -0.118877,0.04383 -0.205582,0.194126 -0.308369,0.291188 -0.260348,0.601997 -0.610033,1.46343 -0.430896,2.382111 0.03568,0.182949 0.08085,0.413574 0.181661,0.509006 0.553801,0.524315 1.14456,0.858949 1.716837,1.288425 0.129879,0.04686 0.260176,0.117197 0.389637,0.140594 0.681831,0.123202 1.318471,-0.255381 1.878263,-0.697815 z"
         sodipodi:nodetypes="cscsccscccsscscccsssccsscssscsccccccssccssccssccssccccssscsccccc" />
      <path
         style="fill:#4cac49;fill-opacity:1;stroke-width:0.330986"
         id="path24"
         d="m 56.72779,5.684514 c 0.474822,-0.038703 0.86255,-0.5308145 1.131756,-1.1144168 0.06204,-0.1344447 0.108402,-0.2902997 0.162603,-0.4354506 0.02855,-0.1416693 0.07506,-0.2710162 0.08564,-0.4250019 0.07072,-1.0295922 -1.72695,-2.4459139 -2.154162,-1.0469051 -0.07005,0.2293743 -0.13789,0.4611722 -0.206839,0.6917599 -0.07256,0.2876292 -0.622803,2.1067758 -0.234725,2.4283397 1.858744,1.5401671 1.460189,1.51768 2.509335,0.8890307 0.783015,-0.7167938 1.474779,-1.6512612 2.163482,-2.5792696 0.259282,-0.3493787 0.985165,-1.2730822 1.177211,-1.8333108 0.07342,-0.2141762 0.05047,-0.5135377 0.0757,-0.7703074 l -0.07368,-0.061285 v 0 c -0.305248,0.034398 -0.635845,-0.051682 -0.915749,0.1031827 -0.258383,0.1429605 -0.442752,0.496607 -0.654606,0.7656601 -0.233865,0.2970054 -0.450811,0.6289054 -0.681913,0.9317088 -0.729661,0.9560578 -1.484846,1.8580921 -2.416081,2.286049 -0.901086,0.184278 -1.120715,-0.019713 0.387345,1.1052581 0.09616,0.071742 -0.200305,-0.194237 -0.248617,-0.3562492 -0.149571,-0.5014592 0.114103,-1.5667061 0.227332,-1.9226354 0.08892,-0.2043738 0.162043,-0.4334419 0.266755,-0.6131176 0.08913,-0.1529334 0.425369,-0.2065219 0.309891,-0.3763333 -1.81738,-1.8732758 -1.108328,-1.3365017 -1.16304,-0.3564295 -0.07265,0.3261106 -0.115874,0.5848492 -0.236587,0.8618441 -0.16167,0.3709737 -0.398567,0.6164798 -0.639566,0.8230946 z"
         sodipodi:nodetypes="ccccscscssccsssscsccsscscc" />
      <path
         style="fill:#4cac49;fill-opacity:1;stroke-width:0.330986"
         id="path25"
         d="m 66.419033,8.7204755 c -0.600013,0.4550783 -1.240771,0.8446503 -1.97795,0.887008 -0.143135,0.00823 -0.292485,-0.013556 -0.438727,-0.020327 -0.123003,-0.060624 -0.492019,-0.2556833 -0.368966,-0.1818922 0.483189,0.289749 0.979276,0.7375397 1.450016,0.8301537 0.111305,0.0219 -0.09578,-0.3841315 -0.102769,-0.5650991 -0.01156,-0.2989884 -0.0113,-0.5897663 0.04808,-0.8492222 0.541109,-2.3645091 0.809108,-1.5654507 1.571592,0.4850689 0.209233,0.6485527 0.434684,1.2915834 0.627691,1.9456584 0.197638,0.669749 0.368849,1.346456 0.543027,2.021575 0.428453,1.66166 0.826425,3.054879 1.037465,4.714196 0.267091,1.021511 -1.284537,0.11538 -1.60213,-0.272639 -0.587406,-0.717663 -1.401784,-1.586917 -1.996684,-2.314201 -0.1447,-0.176894 -0.287849,-0.370204 -0.442287,-0.503474 -0.193453,-0.166963 -0.393516,-0.258398 -0.590287,-0.387595 l -0.08033,-0.04713 v 0 c -0.181456,-0.06053 -0.382896,-0.226233 -0.544378,-0.181633 -0.06061,0.01672 -0.02826,0.220601 0.01492,0.327862 0.08956,0.222511 0.226294,0.39869 0.3499,0.578498 0.326067,0.474336 1.002677,1.305441 1.319883,1.70398 0.224869,0.262485 1.526516,1.799418 1.754294,1.993281 0.900151,0.766128 1.812548,1.43201 2.723584,2.088767 0.315779,0.227646 0.984826,0.76796 1.19302,0.208682 0.06701,-0.180015 -0.02412,-0.494097 -0.03617,-0.741149 -0.552024,-2.087157 -0.0395,-0.200631 -0.752674,-2.644176 -0.771412,-2.64315 -0.268381,-0.992308 -1.059451,-3.786779 -0.375267,-1.325618 -0.78212,-2.642924 -1.143178,-3.972338 C 67.755278,9.498488 67.605256,8.9555267 67.432773,8.4203642 67.302068,8.0148524 67.240391,7.4948474 67.007897,7.2183975 66.340325,6.4246378 65.600942,5.9315216 64.886046,5.3922749 c -0.118161,-0.089121 -0.243273,-0.079836 -0.342366,-0.03264 -0.235855,0.1123199 -0.387261,0.6099928 -0.505453,0.8936446 -0.229897,0.6661399 -0.301668,0.8361103 -0.496319,1.55946 -0.07254,0.269534 -0.161818,0.5243505 -0.201714,0.826051 -0.03232,0.2444542 -0.17408,0.6116109 -0.01259,0.7945113 1.111154,1.2584072 1.522013,1.3235682 2.356912,1.5625582 0.139114,-0.0099 0.282559,-0.0024 0.417337,-0.02974 0.508365,-0.103278 1.237632,-0.494701 1.592434,-0.9830237 0.0519,-0.071432 0.08351,-0.175825 0.125268,-0.2637368 z"
         sodipodi:nodetypes="cscsscscsccsscccscsscsssccscscsscsscccscc" />
      <path
         style="fill:#4cac49;fill-opacity:1;stroke-width:0.330986"
         id="path26"
         d="M 73.211256,19.262781 C 72.991892,17.919909 72.773473,16.566658 72.635305,15.215836 72.579586,14.671123 72.55799,14.128449 72.507693,13.583922 72.417905,12.612129 72.306624,11.760671 72.187952,10.796141 72.110592,10.339136 72.000213,9.4996696 71.818589,9.0466665 71.737549,8.8445063 71.636899,8.6308392 71.510222,8.527804 70.674083,7.8137003 69.401282,6.5370387 68.419291,7.0552121 c -0.575032,0.310952 -2.78943,-0.1591533 1.466666,1.7699608 0.11545,0.052331 0.119165,-0.2984572 0.189385,-0.4315699 0.127779,-0.2422237 0.269134,-0.4618014 0.403697,-0.6927001 0.546661,-0.7637284 1.138982,-1.4669002 1.809194,-1.9357352 0.454464,-0.3187837 1.348074,1.2119795 1.584188,2.1404351 0.482017,1.9545355 0.714577,3.9512532 0.943641,5.9473542 0.142872,1.396701 0.219826,2.786862 0.283477,4.173772 0.0169,0.368294 -0.01444,1.09745 0.224247,1.443991 0.22552,0.327414 1.086854,1.213498 1.554458,0.974877 0.166446,-0.08493 0.01301,-0.867761 -0.05298,-1.330324 C 76.616195,17.649591 76.394651,16.18508 76.204118,14.71753 76.064138,13.665171 75.808533,11.711825 75.652832,10.670927 75.557496,10.033754 75.467998,9.3943991 75.346289,8.762385 75.277241,8.4038874 74.850665,6.3981658 74.559529,6.0520086 73.898471,5.2660087 73.148257,4.8125523 72.442624,4.1928235 72.268964,4.1252549 72.092552,3.991833 71.921649,3.9901057 c -0.33529,-0.00339 -0.776044,0.3824169 -1.033133,0.614817 -0.646038,0.583999 -1.227227,1.3290334 -1.874721,1.9096505 -0.377799,0.3410576 -0.841056,0.5559562 -0.588567,1.1038765 0.526712,0.736576 0.365844,0.3766442 0.953908,0.9205003 0.02245,-0.030255 0.453261,0.3729744 0.480791,0.3557254 0.110293,-0.069119 0.413477,-0.1520454 0.518345,-0.1842609 0.111793,-0.016069 0.221207,-0.050818 0.335418,-0.04803 0.579952,0.013786 1.640567,0.7266411 -1.086079,-1.04909 -0.128981,-0.083998 0.255945,0.2247841 0.356025,0.4010929 0.24525,0.4320525 0.463429,1.3265708 0.599322,1.8033471 0.364683,1.7366055 0.234475,1.0181345 0.537064,2.8997805 0.09191,0.571737 0.201147,1.141981 0.270863,1.715977 0.155006,1.273226 0.196482,2.560586 0.211167,3.81223 z"
         sodipodi:nodetypes="csscscssscsscsssscccscsscsccccssccccc" />
      <path
         style="fill:#4cac49;fill-opacity:1;stroke-width:0.330986"
         id="path27"
         d="m 81.004732,16.543403 c -1.209191,-0.846837 -2.409237,-1.79077 -3.63973,-2.454383 -0.08199,-0.0045 -0.17801,-0.07234 -0.24596,-0.01362 -0.454118,0.392578 0.724378,2.698731 0.925427,3.118491 0.898222,1.739033 1.435293,2.443429 2.885074,2.983685 0.305023,0.113661 0.358404,-1.252169 0.368824,-1.345968 0.0026,-1.255315 -0.108011,-2.531787 -0.222453,-3.805547 -0.07227,-0.80442 -0.07387,-1.233367 -0.286843,-2.005709 C 80.714131,12.748586 80.600917,12.503375 80.506863,12.24488 80.387302,12.039782 80.278231,11.813825 80.14819,11.629589 79.484797,10.689731 77.476022,9.5466691 77.198893,9.3588774 77.100413,9.2921474 76.802921,9.1099555 76.901228,9.1779689 77.417614,9.5352401 77.936013,9.8772146 78.45341,10.226835 78.4044,10.110191 78.331236,10.008502 78.306419,9.8768958 78.088158,8.7193296 78.489923,7.3801638 78.941627,6.7780457 79.098529,6.5688973 79.29093,6.4406862 79.465584,6.2720064 80.744945,5.48358 82.220565,5.7046492 83.649569,5.8870601 c 0.652971,0.059376 0.653625,0.1031808 0.19258,-0.564578 -0.598357,-0.8666363 -2.020721,-1.9374158 -5.184627,-0.6257316 -0.226044,0.093711 -0.436542,0.2472532 -0.65481,0.3708777 -0.179885,0.1871285 -0.378532,0.3333496 -0.539661,0.561388 -0.324574,0.4593646 -0.475343,0.9565244 -0.651707,1.6110631 -0.111839,0.4150583 -0.276191,1.0770727 -0.277496,1.5967572 -4.7e-4,0.1859644 0.05181,0.3784712 0.0777,0.5677119 0.670683,0.4878539 1.340131,0.9841536 2.012043,1.4635606 0.09832,0.07015 0.396115,0.257387 0.298165,0.184769 -0.472296,-0.350146 -0.94862,-0.673104 -1.421743,-1.017755 -0.139013,-0.1012711 0.282312,0.174312 0.419324,0.287532 0.432279,0.357215 0.437482,0.428718 0.817236,0.962651 0.116469,0.248352 0.247197,0.481091 0.349379,0.745062 0.551671,1.425155 0.834298,3.114017 0.825878,4.661573 -0.0021,0.377165 -0.04888,0.735393 -0.07332,1.103089 -0.06236,0.232677 -0.09958,0.49576 -0.187071,0.698031 -0.295596,0.683399 -1.292556,-0.278239 0.947536,1.157201 0.149594,0.09586 -0.286178,-0.273004 -0.419813,-0.439398 -0.368432,-0.458758 -0.503249,-0.754202 -0.817781,-1.321088 -0.309613,-0.653627 -0.599928,-1.267049 -0.786332,-2.031714 -0.03655,-0.149789 -0.115081,-0.438582 -0.03056,-0.460534 0.0672,-0.01751 0.141949,0.03331 0.212934,0.04998 0.114995,0.0674 0.230007,0.134686 0.344998,0.202167 0.124595,0.07311 0.494999,0.317329 0.373749,0.219618 -0.318232,-0.256456 -0.644155,-0.465551 -0.966393,-0.697221 -0.566472,-0.407252 0.55815,0.398537 0.709192,0.519893 0.05853,0.04704 0.114996,0.104644 0.172497,0.156952 z"
         sodipodi:nodetypes="ccccscsscsssccsccsscssscsssscsccsssccccsssscc" />
    </g>
    <g
       id="g335"
       transform="matrix(1.0901489,-0.02846809,0,1,-5.1905016,1.041431)">
      <path
         style="fill:#4cac49;fill-opacity:1;stroke-width:0.264583"
         id="path331"
         d="m 57.872169,24.575427 c -0.540306,1.644759 -0.980149,3.325582 -1.285635,5.030363 -0.06621,0.369512 -0.1144,0.74203 -0.1716,1.113044 -0.0326,0.73837 -0.188207,1.527191 0.02569,2.257309 0.219839,0.750374 1.068559,0.966224 1.801354,1.147291 0.164375,0.04062 0.280705,-0.189417 0.421058,-0.284128 0.390906,-0.408969 1.115494,-1.141391 0.686872,-1.769975 -0.07425,-0.108889 -0.187106,-0.192027 -0.304118,-0.252674 -0.633706,-0.328443 -1.292315,-0.606423 -1.938472,-0.909635 -0.298717,0.05156 -0.526994,5.29e-4 -0.654296,0.344583 -0.04713,0.127404 -0.0011,0.272094 -0.01445,0.407267 -0.0105,0.105553 -0.03818,0.208688 -0.05727,0.313034 l 0.06771,0.04261 v 0 c 0.143263,-0.02331 0.284765,-0.06401 0.429794,-0.06997 0.213569,-0.0088 0.426982,0.02384 0.64072,0.02601 0.324062,0.0033 0.647862,-0.02609 0.971923,-0.02439 -0.370821,-0.259744 -0.758068,-0.497491 -1.112467,-0.779233 0.967606,0.298497 1.009082,1.314796 0.0059,1.847387 -0.63513,0.347033 -0.683906,0.229444 0.57069,0.910006 0.126429,0.06858 -0.199628,-0.213702 -0.260395,-0.344065 -0.562516,-1.206712 0.09606,-4.289145 0.175035,-4.645607 0.236871,-1.069199 0.566677,-2.14403 0.983671,-3.157898 0.07095,-0.172517 0.161176,-0.336464 0.241763,-0.504696 z"
         sodipodi:nodetypes="cscsscsscscccscscscsssscc" />
      <path
         style="fill:#4cac49;fill-opacity:1;stroke-width:0.264583"
         id="path332"
         d="m 61.181578,29.935492 c -0.311409,0.06876 -0.632761,0.06065 -0.949515,0.05445 -0.09318,-0.0019 -0.18787,0.0077 -0.279413,-0.0098 -0.07274,-0.01389 -0.27118,-0.118261 -0.206132,-0.08287 0.264568,0.143952 0.537115,0.272722 0.805672,0.409085 -5.29e-4,-0.04395 -0.02006,-0.09181 -0.0019,-0.131844 0.146238,-0.322856 0.769668,-0.548423 1.092007,-0.551469 0.103817,-0.0011 0.204528,0.03583 0.306792,0.05376 -0.292251,-0.142505 -0.553691,-0.390785 -0.876755,-0.427517 -0.131133,-0.01492 0.144412,0.224105 0.186849,0.349073 0.06193,0.182385 0.09868,0.373491 0.123383,0.564512 0.09943,0.768832 0.01511,1.560375 -0.03058,2.329265 -0.03108,0.606152 -0.105921,1.212532 -0.120587,1.819701 -0.0029,0.119824 7.94e-4,0.239906 0.0094,0.359458 0.0052,0.07165 -0.02858,0.174077 0.0317,0.213148 0.500724,0.324572 1.055965,0.55608 1.583946,0.834123 0.09945,-0.09284 0.2163,-0.169995 0.298347,-0.278519 0.403133,-0.533218 0.632518,-1.361038 0.826027,-1.984039 0.206396,-0.664496 0.304107,-1.025914 0.491175,-1.687973 0.09468,-0.513887 0.557345,-1.575628 0.408903,-2.099257 -0.09249,-0.326268 -1.085635,-0.865529 -1.275677,-0.679515 -0.129204,0.126463 -0.212,0.610275 -0.236078,0.730594 -0.03933,0.196525 -0.07079,0.394541 -0.106187,0.591812 -0.05041,0.239165 -0.100825,0.47833 -0.151236,0.717494 -0.216488,0.842386 -0.4381,1.676519 -0.783376,2.477871 -0.15209,0.352986 -0.341781,0.748173 -0.600337,1.044498 -0.06137,0.07033 -0.147611,0.114279 -0.221416,0.171418 0.395761,0.268537 0.773022,0.5666 1.187286,0.805606 0.08471,0.04887 -0.14744,-0.137305 -0.185262,-0.227491 -0.04839,-0.115379 -0.05332,-0.245091 -0.06517,-0.369644 -0.05899,-0.619974 0.06816,-1.232715 0.04774,-1.853232 0.01498,-0.794072 0.04165,-1.590751 -0.02103,-2.383739 -0.0061,-0.0769 -0.06039,-0.848839 -0.204187,-0.965338 -0.403127,-0.326586 -0.890458,-0.532688 -1.335688,-0.799034 -0.08627,0.01003 -0.17566,0.005 -0.258808,0.03007 -0.264231,0.07969 -0.947838,0.46718 -1.078777,0.714452 -0.03369,0.06362 -0.02413,0.141935 -0.03619,0.212905 0.350957,0.228375 0.692057,0.472662 1.05287,0.685125 0.429273,0.252772 1.124151,0.123023 1.590394,0.06199 z"
         sodipodi:nodetypes="cccsccccssscscccsscsssccsscsssccsccscscc" />
      <path
         style="fill:#4cac49;fill-opacity:1;stroke-width:0.264583"
         id="path333"
         d="m 64.28637,26.619621 c -0.805799,0.335124 -1.673355,0.397264 -2.53487,0.429011 -0.687904,0.02535 -0.463651,0.02971 -1.073941,-0.04094 0.330742,0.170392 0.63849,0.395867 0.992224,0.511175 0.05954,0.01942 -0.0331,-0.134469 -2.64e-4,-0.187862 0.05698,-0.093 0.148238,-0.16832 0.246994,-0.214614 0.568507,-0.266486 1.230947,-0.166553 1.826323,-0.108622 0.8148,0.153773 0.397492,0.05638 1.172546,0.274031 0.158163,0.04442 0.312306,0.107699 0.474716,0.132427 0.158636,0.02416 0.329197,0.0645 0.48121,0.0131 0.262274,-0.08866 0.388933,-0.494938 0.481161,-0.693243 0.170783,-0.679339 0.460177,-1.418172 0.133988,-2.100913 -0.573545,-0.845149 -0.426762,-1.02001 -1.143919,-0.60156 -0.303538,0.186557 -0.314229,0.494954 -0.383563,0.79971 -0.180351,0.792735 -0.02265,0.22281 -0.247439,0.969909 -0.06075,0.116009 -0.104754,0.242463 -0.182239,0.348027 -0.02066,0.02816 -0.324631,0.299979 -0.39682,0.307725 -0.125994,0.01352 -0.250777,-0.037 -0.375364,-0.06015 -0.168241,-0.03126 -0.335275,-0.0687 -0.502915,-0.103045 -0.211206,-0.03859 -0.422413,-0.07717 -0.633619,-0.115761 -0.529251,-0.037 -0.817274,-0.09467 -1.341908,0.015 -0.297392,0.06217 -0.689113,0.192939 -0.869487,0.476028 -0.05924,0.09298 -0.148389,0.2534 -0.06411,0.32448 0.436647,0.36826 0.985126,0.578477 1.47769,0.867714 0.171871,0.02228 0.342683,0.05537 0.515612,0.06686 1.105562,0.07346 2.249043,-0.109593 3.314494,-0.391189 z"
         sodipodi:nodetypes="cscscscsscccsscsssccssscscc" />
      <path
         style="fill:#4cac49;fill-opacity:1;stroke-width:0.264583"
         id="path334"
         d="m 68.083265,28.199686 c 0.637341,-0.26207 1.399119,-0.557215 1.73782,-1.209045 0.04821,-0.09277 0.06235,-0.199593 0.09352,-0.29939 -1.074803,-3.681457 -3.47073,1.230113 -3.086719,2.67616 0.12139,0.457118 0.427191,0.777314 0.752104,1.095891 2.777011,2.6046 1.317269,-0.565692 0.22528,0.582352 -0.256913,0.302718 -0.458957,0.51253 -0.651708,0.874228 -0.268965,0.504714 -0.582893,1.387592 -0.644446,1.959875 -0.01961,0.182335 0.0058,0.366728 0.0087,0.55009 0.07083,0.149399 0.07931,0.350205 0.212481,0.448199 0.969704,0.71356 1.494539,1.2373 2.552391,1.067379 0.275415,-0.04424 0.556567,-0.103812 0.803693,-0.233196 0.745162,-0.390128 0.977479,-0.842388 1.486373,-1.492885 0.195205,-0.377817 0.415854,-0.743537 0.585613,-1.133451 0.358984,-0.824534 0.612479,-1.73341 0.826471,-2.604026 0.263449,-1.071841 0.442643,-2.157709 0.608915,-3.247647 0.05595,-0.40658 0.121436,-0.819752 0.150223,-1.230314 0.01122,-0.159971 0.05077,-0.529086 -0.08918,-0.678106 -0.304885,-0.324644 -1.263573,-0.855898 -1.636059,-0.823018 -0.07199,0.0064 -0.06562,0.132208 -0.07319,0.20408 -0.01315,0.125029 0.0096,0.25127 0.01206,0.376964 0.01368,0.690864 0.0086,0.493736 -0.02979,1.276422 -0.174242,1.989511 -0.43519,4.02681 -1.273961,5.863672 -0.171945,0.376555 -0.400024,0.724855 -0.600035,1.087284 -0.537819,0.652822 -0.704623,0.989073 -1.436204,1.402411 -0.211391,0.119435 -0.445635,0.207647 -0.685212,0.24707 -0.206172,0.03392 -0.708705,-0.223207 -0.62605,-0.03131 0.137856,0.320059 0.53148,0.486654 0.865283,0.586732 0.168,0.05037 -0.209812,-0.281109 -0.314719,-0.421663 -0.03607,-0.184082 -0.108805,-0.364662 -0.108201,-0.552244 7.93e-4,-0.209479 0.05206,-0.41765 0.111961,-0.618382 0.23437,-0.785386 0.723389,-1.477467 1.357185,-1.987356 1.219275,-0.714051 -1.123319,-0.631687 -1.263891,-2.469124 -0.03668,-0.479414 0.109644,-0.755758 0.259438,-1.202677 0.235098,-0.513582 0.317873,-0.768699 0.659976,-1.222552 0.113141,-0.150103 0.23454,-0.298941 0.383932,-0.413018 0.08597,-0.06564 0.379568,-0.03483 0.304345,-0.112549 -2.222467,-2.195254 -1.478399,1.683144 -1.478399,1.683144 z"
         sodipodi:nodetypes="cscsccsscssscsscssccccscssssccscscsssc" />
      <path
         style="fill:#4cac49;fill-opacity:1;stroke-width:0.27593"
         id="path335"
         d="m 75.31669,27.20141 c 0.788311,-0.367451 1.717819,-0.729082 2.622365,-0.690963 0.192024,0.008 0.379219,0.05875 0.568827,0.08812 0.168924,0.09479 0.626027,0.429595 0.506772,0.284366 -0.260453,-0.317181 -0.544444,-0.666628 -0.944313,-0.817206 -0.204743,-0.07709 0.204566,0.364249 0.262602,0.560498 0.07858,0.265705 0.124487,0.540522 0.144211,0.815147 0.06366,0.886366 -0.05385,1.208449 -0.211323,2.10184 -0.369352,1.557383 -1.069702,3.007385 -2.003652,4.343653 -0.443285,0.634241 -0.669139,0.880614 -1.153039,1.457968 -0.427437,0.38479 -0.898027,0.799775 -1.523591,0.8775 -0.140914,0.01751 -0.29011,0.01641 -0.426097,-0.02225 -0.122997,-0.03492 -0.415298,-0.276295 -0.325446,-0.191447 0.323766,0.305746 0.688235,0.572669 1.032351,0.859005 -0.05256,-0.157494 -0.130656,-0.30968 -0.157703,-0.472484 -0.08859,-0.53315 0.06067,-1.079063 0.499649,-1.454516 0.309132,-0.264399 0.540035,-0.287265 0.925632,-0.397466 0.477776,-0.05615 0.915218,0.03499 1.293526,0.32011 0.107913,0.08133 0.38839,0.368177 0.28572,0.281295 -1.240526,-1.049787 -1.471956,-1.51822 -1.010338,-0.736642 0.447755,0.640845 0.158331,0.271361 0.930885,1.064685 l 0.06665,0.05158 v 0 c 0.619847,0.259467 0.52432,0.420001 0.594622,0.05687 -0.45239,-0.98923 -0.127327,-0.376178 -1.788998,-1.994066 -0.439597,-0.428016 -1.025258,-0.472607 -1.611156,-0.316918 -0.1642,0.06708 -0.341077,0.11253 -0.492598,0.201263 -0.660603,0.386857 -1.055704,1.159502 -1.057742,1.870305 -4.73e-4,0.165183 0.0497,0.327306 0.07457,0.490962 0.518988,0.524379 1.000884,1.081948 1.556966,1.573136 0.115214,0.101769 0.278616,0.153869 0.434428,0.185856 0.161215,0.03309 0.33218,0.02819 0.495276,0.005 0.676145,-0.09615 1.15882,-0.515063 1.599641,-0.960691 0.196908,-0.212655 0.411551,-0.412429 0.590726,-0.637967 0.212963,-0.268066 0.396325,-0.555208 0.582958,-0.839409 0.918355,-1.398453 1.61256,-2.815558 2.026139,-4.411947 0.195727,-0.931397 0.464407,-1.970353 0.230364,-2.925816 -0.05637,-0.230103 -0.123329,-0.474409 -0.285551,-0.657336 -0.776405,-1.021302 -1.587302,-1.872305 -2.830244,-1.862102 -0.933147,0.05935 -1.803385,0.444695 -2.675919,0.716053 z"
         sodipodi:nodetypes="cccsssscscscsccscsccccscscsscssscsscssscc" />
    </g>
    <g
       id="g350">
      <path
         style="fill:#ff00ff;fill-opacity:1;stroke-width:0.264583"
         d="M 8.9958332,9.2604166 C 6.7568079,9.3350153 4.6092094,10.170219 2.38125,10.31875 -1.1162353,10.551916 -3.1292871,10.746793 -6.0854166,8.7312499 -8.0349721,7.4020076 -8.9787139,5.1640382 -9.2604166,2.9104166 -10.268291,-5.1525802 -5.9675368,-14.576276 3.4395833,-14.022916 9.8677258,-13.64479 13.416157,-10.285988 14.2875,-3.96875 c 0.156658,1.1357748 0,2.2930556 0,3.43958334 0,1.05833332 0.08789,2.12032236 0,3.17499996 -0.19897,2.3876354 -0.281755,3.9773359 -2.38125,5.0270833"
         id="path350" />
      <path
         style="fill:#4cac49;fill-opacity:1;stroke-width:0.265855"
         d="M -0.41419116,9.3873114 C 2.8528115,2.8914799 9.5486728,-2.4971551 17.062834,-2.3785177 c 3.544353,0.1730591 4.468417,4.2373836 4.385591,7.1332527 0.130804,4.9152062 -0.795098,9.818554 -0.828172,14.706114 3.812861,-2.693457 6.759912,-6.422139 10.201475,-9.5699009 2.271841,-2.5076415 4.999449,-4.5007002 7.690539,-6.5153169 2.269208,-1.3789116 5.222482,-2.57029145 7.709042,-0.970568 4.708217,2.8317115 6.387871,6.8202519 7.947102,11.7364028 1.356738,4.277703 2.952322,13.640402 -1.820768,16.765526 -3.169879,2.075441 -10.406571,-0.876079 -13.977388,-1.570677 -4.94801,-1.347585 -9.521522,-1.254904 -14.583204,-2.059687 -3.400587,-0.540677 -7.389535,1.324703 -10.077148,2.576038 -2.720385,1.266594 -4.2732927,2.130117 -5.6528254,4.779521 -0.6334036,2.754231 -0.6800862,5.665697 2.0470204,7.605598 4.127038,3.091589 9.532511,2.254236 14.10286,1.247376 6.778912,-1.623409 16.60974,-2.540836 23.176816,0.315194 3.868437,1.534643 0.698525,4.574512 -1.886006,7.871054 C 42.7045,54.879961 39.414596,57.929098 35.269774,57.421977 30.308819,56.98208 25.489317,55.48381 20.493613,55.250199 16.122311,54.917594 11.695017,54.835515 7.3691619,55.635324 4.1759326,56.162922 1.0969049,55.148607 -2.0665582,55.335186 -3.1560028,55.561593 -2.4159734,53.700792 -3.2118758,53.236049"
         id="path1"
         sodipodi:nodetypes="csssscssssssssssssssss" />
      <path
         style="fill:#ffffff;fill-opacity:1;stroke-width:0.264583"
         d="M 9.0619791,23.01875 C 8.1256946,23.486892 7.9880975,23.676835 6.9453124,23.746354 4.9211737,23.881296 2.6272292,22.276083 2.1166666,20.306771 2.038413,20.004935 1.984375,19.692543 1.984375,19.380729 c 0,-0.728939 0.022629,-1.46217 0.1322916,-2.182813 0.2409178,-1.583173 2.2672207,-2.978498 3.6380208,-3.505729 1.0112523,-0.388943 2.3864766,-0.302399 3.2411458,0.396875 0.2895973,0.236944 0.5356966,0.522794 0.79375,0.79375 1.1679408,1.226338 1.8541858,2.923988 1.7859378,4.630209 -0.0064,0.160388 -0.0882,0.30868 -0.132292,0.46302 -0.20844,0.729538 -0.610318,1.188585 -1.058333,1.785938"
         id="path346" />
      <path
         style="fill:#ffffff;fill-opacity:1;stroke-width:0.264583"
         d="M 22.952604,9.3265624 C 22.86441,9.0619791 22.822425,8.777185 22.688021,8.5328124 22.575069,8.3274449 22.395148,8.1648394 22.225,8.0036457 21.158047,6.9928482 19.430054,6.1747479 17.991666,6.9453124 c -1.565376,0.8385945 -2.330271,2.33875 -2.645833,4.0348956 -0.188138,1.011241 -0.33216,1.743178 0,2.711979 0.807554,2.355365 3.476347,3.446676 5.55625,1.852084 0.764063,-0.585782 1.389063,-1.127621 1.389063,-2.116667"
         id="path347" />
      <path
         style="fill:#1a1a1a;fill-opacity:1;stroke-width:0.264583"
         d="M 10.186458,18.454687 C 9.8193178,18.645634 9.3995372,18.790108 8.9826639,18.692989 8.7087283,18.625497 8.5843072,18.341524 8.3945868,18.159063 8.2039097,17.850514 8.1913091,17.447471 8.2987781,17.106827 c 0.1385624,-0.396164 0.5303309,-0.65094 0.9182437,-0.762519 0.3874788,-0.115501 0.8201302,0.06352 1.0320532,0.403255 0.255742,0.394054 0.384994,0.931066 0.146994,1.364323 -0.06343,0.118037 -0.144992,0.225294 -0.209611,0.342801 z"
         id="path348" />
      <path
         style="fill:#1a1a1a;fill-opacity:1;stroke-width:0.264583"
         d="m 16.867187,14.022917 c -0.457207,0.09144 -0.590761,-0.346798 -0.719351,-0.81839 -0.0033,-0.431912 0.146826,-0.87992 0.534726,-1.112126 0.413839,-0.134842 0.895038,0.01827 1.214616,0.298287 0.403031,0.2905 0.294776,0.809501 -0.01331,1.122393 -0.227952,0.345849 -0.411439,0.388787 -0.782821,0.463064 z"
         id="path349"
         sodipodi:nodetypes="sccccss" />
    </g>
  </g>
</svg>
