<?xml version="1.0" encoding="UTF-8" standalone="no"?>
<!-- Created with Inkscape (http://www.inkscape.org/) -->

<svg
   width="139.82227mm"
   height="171.41176mm"
   viewBox="0 0 139.82227 171.41176"
   version="1.1"
   id="svg1"
   sodipodi:docname="250704 web icon.svg"
   xml:space="preserve"
   inkscape:version="1.4 (86a8ad7, 2024-10-11)"
   xmlns:inkscape="http://www.inkscape.org/namespaces/inkscape"
   xmlns:sodipodi="http://sodipodi.sourceforge.net/DTD/sodipodi-0.dtd"
   xmlns="http://www.w3.org/2000/svg"
   xmlns:svg="http://www.w3.org/2000/svg"><sodipodi:namedview
     id="namedview1"
     pagecolor="#ffffff"
     bordercolor="#000000"
     borderopacity="0.25"
     inkscape:showpageshadow="2"
     inkscape:pageopacity="0.0"
     inkscape:pagecheckerboard="0"
     inkscape:deskcolor="#d1d1d1"
     inkscape:document-units="mm"
     inkscape:zoom="1"
     inkscape:cx="361.5"
     inkscape:cy="575.5"
     inkscape:window-width="1920"
     inkscape:window-height="1046"
     inkscape:window-x="968"
     inkscape:window-y="2149"
     inkscape:window-maximized="1"
     inkscape:current-layer="svg1"><inkscape:page
       x="0"
       y="0"
       width="139.82227"
       height="171.41176"
       id="page2"
       margin="0"
       bleed="0" /></sodipodi:namedview><defs
     id="defs1"><inkscape:path-effect
       effect="fillet_chamfer"
       id="path-effect3"
       is_visible="true"
       lpeversion="1"
       nodesatellites_param="F,0,0,1,0,0,0,1 @ F,0,0,1,0,0,0,1 @ F,0,0,1,0,0,0,1 @ F,0,0,1,0,0,0,1 @ F,0,0,1,0,0,0,1 @ F,0,0,1,0,0,0,1 @ F,0,0,1,0,0,0,1 @ F,0,0,1,0,0,0,1 @ F,0,0,1,0,0,0,1 @ F,0,0,1,0,0,0,1 @ F,0,0,1,0,0,0,1 @ F,0,0,1,0,0,0,1 @ F,0,0,1,0,0,0,1 @ F,0,0,1,0,0,0,1 @ F,0,0,1,0,0,0,1"
       radius="0"
       unit="px"
       method="auto"
       mode="F"
       chamfer_steps="1"
       flexible="false"
       use_knot_distance="true"
       apply_no_radius="true"
       apply_with_radius="true"
       only_selected="false"
       hide_knots="false" /></defs><g
     inkscape:groupmode="layer"
     id="layer3"
     inkscape:label="Layer 2"
     transform="translate(-28.839581,-80.580757)"><path
       style="fill:#e9f7ff;fill-opacity:1;stroke-width:0.165;paint-order:stroke fill markers"
       d="m 75.808305,211.19401 c 20.298892,6.69241 37.029135,28.4846 40.375935,40.79851 0,0 -73.612793,-3.69271 -87.344657,-5.13629 3.510122,-28.69288 29.164198,-41.53226 46.968722,-35.66222 z"
       id="path5"
       sodipodi:nodetypes="sccs"
       inkscape:export-filename="atlast 2025 icon.png"
       inkscape:export-xdpi="96"
       inkscape:export-ydpi="96" /><path
       style="fill:#a379d9;fill-opacity:1;stroke-width:0.165;paint-order:stroke fill markers"
       d="m 55.489306,159.21449 c -1.031355,-12.93249 0.180972,-24.84655 1.633374,-36.6348 1.782436,-14.46693 8.894177,-30.720957 18.90587,-37.633392 6.992899,-4.828149 9.473716,2.29262 8.58394,7.955296 -0.65596,4.174627 -7.946788,18.443776 -5.080654,12.517696 6.247675,-9.373498 15.413409,-22.065665 25.918064,-24.375707 5.23918,-1.152129 15.61926,-0.41173 12.79795,5.199154 -1.70202,3.762697 -7.73339,11.458133 -12.98447,15.964613 7.85223,-4.465464 16.77363,-10.000116 25.79497,-7.354292 6.34886,3.685814 4.53018,14.139072 -0.10071,17.556452 -7.28001,7.53662 -16.75477,3.54206 -28.78557,0.58501 -1.87116,0.41427 -15.38158,39.73407 -30.999156,69.96486 -10.910411,-9.11117 -14.870895,-13.55402 -15.683608,-23.74489 z"
       id="path3"
       sodipodi:nodetypes="sssscsccccccs" /><path
       style="fill:#79bc76;fill-opacity:1;stroke-width:0.165;paint-order:stroke fill markers"
       d="m 92.960936,110.98243 c 6.006541,-3.51887 15.579514,-4.20645 19.901894,2.48882 3.91837,6.06947 5.85528,10.45976 6.80087,18.72873 0.93243,8.15388 -0.18392,17.8907 -0.31419,24.99394 5.81088,-2.9997 11.35296,-5.68927 15.78379,-7.33767 5.15423,-1.91752 15.27743,-2.05264 20.45791,-0.3444 7.19929,2.37393 10.70102,7.62215 11.87316,16.00418 1.27759,9.13609 3.1216,18.97545 -4.08782,25.26956 -16.31403,14.24278 -43.47494,10.0907 -62.78514,9.07195 -2.966026,6.24603 -7.953007,23.59991 -7.953007,23.59991 l -26.542637,-10.2763 c 0,0 8.679319,-11.72228 12.423007,-17.76914 -5.807439,-4.33838 -8.94718,-9.23182 -11.666088,-15.91444 -3.414849,-8.39313 -6.437616,-16.04368 -5.954275,-25.93879 0.184511,-3.77737 -0.790619,-11.51367 3.420284,-16.50749 6.703753,-7.95016 15.513292,-18.37741 28.642242,-26.06886 z"
       id="path1"
       sodipodi:nodetypes="ssscssssccccssss"
       inkscape:path-effect="#path-effect3"
       inkscape:original-d="m 92.960936,110.98243 c 6.006541,-3.51887 15.579514,-4.20645 19.901894,2.48882 3.91837,6.06947 5.85528,10.45976 6.80087,18.72873 0.93243,8.15388 -0.18392,17.8907 -0.31419,24.99394 5.81088,-2.9997 11.35296,-5.68927 15.78379,-7.33767 5.15423,-1.91752 15.27743,-2.05264 20.45791,-0.3444 7.19929,2.37393 10.70102,7.62215 11.87316,16.00418 1.27759,9.13609 3.1216,18.97545 -4.08782,25.26956 -16.31403,14.24278 -43.47494,10.0907 -62.78514,9.07195 -2.966026,6.24603 -7.953007,23.59991 -7.953007,23.59991 l -26.542637,-10.2763 c 0,0 8.679319,-11.72228 12.423007,-17.76914 -5.807439,-4.33838 -8.94718,-9.23182 -11.666088,-15.91444 -3.414849,-8.39313 -6.437616,-16.04368 -5.954275,-25.93879 0.184511,-3.77737 -0.790619,-11.51367 3.420284,-16.50749 6.703753,-7.95016 15.513292,-18.37741 28.642242,-26.06886 z" /><path
       style="fill:#79bc76;fill-opacity:1;stroke-width:0.165;paint-order:stroke fill markers"
       d="m 63.661849,135.69623 c -2.719708,-3.25862 -5.417435,-6.8533 -9.456753,-8.54362 -2.249732,-1.1032 -4.390104,-2.83033 -6.947097,-2.95924 -4.620292,-0.23293 -8.673713,7.81473 -8.527917,14.55882 0.20699,9.57482 3.512366,16.85983 14.085204,19.98922 2.921636,0.86476 5.964009,0.12072 8.819542,-0.66045 3.463157,-0.82878 9.414452,-3.23151 12.183921,-12.69242 -3.144512,-7.12871 -8.625638,-7.71567 -10.1569,-9.69231 z"
       id="path2"
       sodipodi:nodetypes="ccsssccc" /><ellipse
       style="fill:#000000;fill-opacity:1;stroke-width:0.165;paint-order:stroke fill markers"
       id="path4"
       cx="111.78645"
       cy="142.61041"
       rx="2.2489583"
       ry="7.6729164" /></g></svg>
