<?xml version="1.0" encoding="UTF-8" standalone="no"?>
<!-- Created with Inkscape (http://www.inkscape.org/) -->

<svg
   width="86.566086mm"
   height="59.99567mm"
   viewBox="0 0 86.566086 59.99567"
   version="1.1"
   id="svg1"
   inkscape:version="1.4.2 (ebf0e940, 2025-05-08)"
   sodipodi:docname="mail-icon-web.svg"
   xmlns:inkscape="http://www.inkscape.org/namespaces/inkscape"
   xmlns:sodipodi="http://sodipodi.sourceforge.net/DTD/sodipodi-0.dtd"
   xmlns="http://www.w3.org/2000/svg"
   xmlns:svg="http://www.w3.org/2000/svg">
  <sodipodi:namedview
     id="namedview1"
     pagecolor="#ffffff"
     bordercolor="#000000"
     borderopacity="0.25"
     inkscape:showpageshadow="2"
     inkscape:pageopacity="0.0"
     inkscape:pagecheckerboard="true"
     inkscape:deskcolor="#d1d1d1"
     inkscape:document-units="mm"
     inkscape:zoom="0.78216891"
     inkscape:cx="196.24917"
     inkscape:cy="334.96601"
     inkscape:window-width="1032"
     inkscape:window-height="1027"
     inkscape:window-x="0"
     inkscape:window-y="25"
     inkscape:window-maximized="0"
     inkscape:current-layer="layer1" />
  <defs
     id="defs1" />
  <g
     inkscape:label="Layer 1"
     inkscape:groupmode="layer"
     id="layer1"
     transform="translate(-53.271116,-54.738515)">
    <rect
       style="fill:#57f471;fill-opacity:1;stroke-width:0.258596"
       id="rect2"
       width="77.801826"
       height="51.755119"
       x="65.229317"
       y="-99.611801"
       transform="matrix(0.99393708,0.10995033,0.10995033,-0.99393708,0,0)" />
    <path
       style="fill:#000000;stroke-width:0.264583"
       id="path1"
       d="m 56.651654,104.70505 c 0.06446,-0.66947 0.145738,-1.33752 0.193371,-2.00839 0.315846,-4.448324 0.43389,-8.911225 0.613515,-13.365986 0.466736,-11.575078 -0.0092,1.1829 0.399566,-10.029192 0.243396,-5.584449 0.356764,-11.173373 -0.156652,-16.744172 -0.09357,-0.983602 -0.30181,-1.949836 -0.458856,-2.923487 -0.02582,-0.160134 -0.205528,-0.617244 0.118859,-0.716166 0.323607,-0.09868 0.669502,-0.09801 1.004252,-0.147013 0.843601,-0.07014 1.684901,-0.178205 2.530801,-0.210413 5.827628,-0.221887 9.854972,-0.148974 15.908192,0.06 6.898092,0.238138 14.401125,0.685406 21.280622,1.206003 3.296606,0.249467 6.588036,0.563202 9.882056,0.844804 9.91835,1.08785 19.89559,1.85897 29.74534,3.498646 0.38567,0.183975 1.56924,0.664437 1.15701,0.551929 -0.89777,-0.245023 -1.72454,-1.189861 -2.62433,-0.952403 -0.52048,0.137359 0.14375,1.070957 0.13559,1.609194 -0.0132,0.872296 -0.11052,1.741733 -0.19955,2.60958 -0.15813,1.541436 -0.90084,7.230271 -1.05445,8.425973 -1.21553,10.026756 -2.13295,20.086365 -3.48416,30.096423 -0.01,0.0659 -0.55117,3.84756 -0.64446,4.31001 -0.084,0.41633 -0.23218,1.49209 -0.84832,1.69741 -0.78503,0.26161 -3.7416,-0.23636 -3.9432,-0.26047 -1.42818,-0.22746 -2.85875,-0.44041 -4.28455,-0.68239 -1.30224,-0.221 -11.76839,-2.09961 -12.50592,-2.22913 -7.36488,-1.29334 -14.74136,-2.50321 -22.126088,-3.67677 -8.763926,-1.37819 -17.562988,-2.511 -26.336532,-3.82339 -1.398336,-0.14812 -2.779889,-0.53818 -4.19164,-0.53711 -0.40898,-0.0366 -0.814869,-0.0985 -1.220449,-0.16114 0,0 3.13762,2.34652 3.13762,2.34652 v 0 c 0.416737,0.0515 0.833535,0.10561 1.253149,0.12826 1.292473,0.0562 2.577573,0.22435 3.864684,0.34556 8.487582,0.90827 16.969115,1.88719 25.413398,3.14282 7.408484,1.15755 14.807238,2.34577 22.178528,3.72492 5.33068,0.99736 7.77673,1.53356 12.94521,2.55741 1.52772,0.30263 3.05757,0.59435 4.58636,0.89152 0.97559,0.14182 3.27957,0.76306 4.50023,0.19746 0.64542,-0.29906 0.71355,-1.50873 0.76744,-1.99083 0.16623,-1.48689 0.12753,-2.99253 0.33084,-4.47625 0.80681,-10.095867 1.61061,-20.206475 3.23865,-30.210482 0.26581,-1.53561 0.52404,-3.07255 0.79743,-4.606829 0.18783,-1.054127 0.92597,-4.809763 1.07093,-6.17591 0.0607,-0.571648 0.41031,-1.27482 0.0513,-1.723808 -1.88509,-2.35772 -2.79183,-2.551454 -4.84333,-3.28132 C 125.40274,60.96676 115.9178,60.445234 106.47062,59.565193 96.071883,58.787405 85.674076,58.080007 75.262687,57.490921 71.985159,57.305474 68.706932,57.132598 65.428927,56.955745 62.993471,56.824348 60.56004,56.64481 58.12231,56.56617 c -0.942555,-0.0304 -1.885625,0.04175 -2.828438,0.06263 -0.432758,0.102079 -0.899819,0.108919 -1.298271,0.306234 -0.172887,0.08561 -0.270465,0.300466 -0.308721,0.489559 -0.0363,0.179443 0.06074,0.361251 0.100428,0.539977 0.219194,0.98724 0.493069,1.963785 0.631534,2.968353 0.805698,5.641226 0.958508,11.335194 0.831667,17.029443 -0.139208,5.089874 -0.273203,10.174065 -0.668689,15.252403 -0.209331,2.687974 -0.443,5.16863 -0.89539,7.809981 -0.107445,0.62732 -0.276876,1.24244 -0.415314,1.86366 z" />
    <path
       style="fill:#000000;stroke-width:0.264583"
       id="path2"
       d="m 59.386154,59.029369 c 4.214273,2.82561 8.051636,6.167951 11.862822,9.504595 4.777737,4.253783 9.589283,8.469781 14.568878,12.486706 1.681369,1.282433 3.334605,2.604649 5.128062,3.729093 1.322959,0.630973 2.565588,1.469684 3.968877,1.892917 0.360532,0.108736 0.718238,-0.229651 1.065861,-0.374441 0.570843,-0.237768 1.125548,-0.512588 1.686837,-0.77211 3.301909,-1.526701 6.608399,-3.042375 9.917919,-4.552617 6.39047,-2.924127 12.57106,-6.281742 18.65638,-9.79017 2.00832,-1.264954 4.15053,-2.327463 6.12123,-3.653078 0.3563,-0.215996 0.18837,-0.119809 0.5019,-0.291862 0,0 -3.31501,-2.140686 -3.31501,-2.140686 v 0 c -0.30043,0.203806 -0.139,0.09174 -0.48296,0.338061 -1.82663,1.401617 -3.7695,2.644966 -5.71182,3.877744 -5.93873,3.623043 -11.96333,7.133801 -18.33249,9.957403 -3.42106,1.48825 -6.84445,2.949522 -10.339281,4.257971 -0.596648,0.223383 -1.189262,0.46159 -1.800497,0.64126 -0.351412,0.103296 -1.314344,-0.07577 -1.079484,0.205301 0.703323,0.841693 1.836565,1.199777 2.754847,1.799667 C 92.642813,85.022199 90.902376,83.649705 89.11257,82.340732 83.960255,78.341873 79.015708,74.088997 74.171502,69.723219 70.56181,66.512005 66.938601,63.303271 63.038013,60.445871 Z" />
  </g>
</svg>
